<svg width="236" height="86" viewBox="0 0 236 86" fill="none" xmlns="http://www.w3.org/2000/svg">
<path d="M32.7211 23.4396C36.0861 11.9391 44.7413 9.64102 48.6482 9.92957C52.5276 10.2161 61.695 13.5275 63.265 25.5471C64.8351 37.5667 55.518 54.7386 50.9525 62.0142L38.8866 61.1231C35.4294 53.3538 29.3562 34.9401 32.7211 23.4396Z" fill="url(#paint0_linear_41_24)" stroke="#1E1153" stroke-width="2"/>
<path d="M54.14 26.9821C62.5357 18.017 70.9 19.6577 74.0326 21.5987C77.1431 23.526 83.2161 30.4654 78.7023 42.0223C74.1885 53.5791 58.0569 65.1197 50.7044 69.7437L41.0298 63.7493C41.9016 55.2291 45.7442 35.9473 54.14 26.9821Z" fill="url(#paint1_linear_41_24)" stroke="#1E1153" stroke-width="2"/>
<path d="M19.9471 45.5617C14.2083 34.7303 18.5365 27.4267 21.4179 25.1288C24.2789 22.8471 32.8832 19.4402 42.3698 27.4856C51.8564 35.531 61.9351 51.0855 63.8945 59.5065L50.5418 69.985C42.7348 66.357 25.686 56.3931 19.9471 45.5617Z" fill="url(#paint2_linear_41_24)" stroke="#1E1153" stroke-width="2"/>
<path d="M129.32 26.4V32.256H119.048V60H113.192V32.256H102.92V26.4L129.32 26.4ZM130.248 51.12V36L136.104 36V49.584C136.104 50.528 136.336 51.392 136.8 52.176C137.264 52.944 137.88 53.56 138.648 54.024C139.432 54.472 140.288 54.696 141.216 54.696C142.176 54.696 143.04 54.472 143.808 54.024C144.576 53.56 145.192 52.944 145.656 52.176C146.12 51.392 146.352 50.528 146.352 49.584V36H152.208L152.232 60H146.376L146.352 57.816C145.52 58.68 144.536 59.368 143.4 59.88C142.264 60.376 141.048 60.624 139.752 60.624C138.008 60.624 136.416 60.2 134.976 59.352C133.536 58.488 132.384 57.344 131.52 55.92C130.672 54.48 130.248 52.88 130.248 51.12ZM157.177 60V24L163.033 24V60H157.177ZM168.802 36H174.658V60H168.802V36ZM171.778 32.904C170.914 32.904 170.186 32.624 169.594 32.064C169.002 31.488 168.706 30.768 168.706 29.904C168.706 29.056 169.002 28.344 169.594 27.768C170.186 27.192 170.906 26.904 171.754 26.904C172.602 26.904 173.314 27.192 173.89 27.768C174.482 28.344 174.778 29.056 174.778 29.904C174.778 30.768 174.49 31.488 173.914 32.064C173.338 32.624 172.626 32.904 171.778 32.904ZM185.908 72H180.052V36H185.908V39.048C186.692 37.96 187.652 37.08 188.788 36.408C189.94 35.72 191.284 35.376 192.82 35.376C194.58 35.376 196.22 35.704 197.74 36.36C199.26 37.016 200.596 37.928 201.748 39.096C202.916 40.248 203.82 41.584 204.46 43.104C205.116 44.624 205.444 46.256 205.444 48C205.444 49.744 205.116 51.384 204.46 52.92C203.82 54.456 202.916 55.808 201.748 56.976C200.596 58.128 199.26 59.032 197.74 59.688C196.22 60.344 194.58 60.672 192.82 60.672C191.284 60.672 189.94 60.336 188.788 59.664C187.652 58.976 186.692 58.088 185.908 57V72ZM192.748 41.016C191.532 41.016 190.444 41.336 189.484 41.976C188.524 42.6 187.772 43.44 187.228 44.496C186.684 45.552 186.412 46.72 186.412 48C186.412 49.28 186.684 50.456 187.228 51.528C187.772 52.584 188.524 53.432 189.484 54.072C190.444 54.696 191.532 55.008 192.748 55.008C193.98 55.008 195.108 54.696 196.132 54.072C197.156 53.448 197.972 52.608 198.58 51.552C199.188 50.48 199.492 49.296 199.492 48C199.492 46.72 199.188 45.552 198.58 44.496C197.972 43.44 197.156 42.6 196.132 41.976C195.124 41.336 193.996 41.016 192.748 41.016Z" fill="#1E1153"/>
<defs>
<linearGradient id="paint0_linear_41_24" x1="45.5569" y1="11.4683" x2="46.9906" y2="38.2431" gradientUnits="userSpaceOnUse">
<stop stop-color="#FF6CD6"/>
<stop offset="1" stop-color="#FBF0C4"/>
</linearGradient>
<linearGradient id="paint1_linear_41_24" x1="77.6787" y1="25.917" x2="57.6734" y2="62.6305" gradientUnits="userSpaceOnUse">
<stop stop-color="#666CFF"/>
<stop offset="1" stop-color="#FBF0C4"/>
</linearGradient>
<linearGradient id="paint2_linear_41_24" x1="21.7323" y1="24.878" x2="54.9199" y2="66.4936" gradientUnits="userSpaceOnUse">
<stop stop-color="#0C7FE9"/>
<stop offset="1" stop-color="#FBEFC3"/>
</linearGradient>
</defs>
</svg>
