<svg width="383" height="154" viewBox="0 0 383 154" fill="none" xmlns="http://www.w3.org/2000/svg">
<path d="M58.9608 42.2364C65.0242 21.5133 80.6202 17.3724 87.6602 17.8923C94.6505 18.4086 111.17 24.3756 113.999 46.034C116.828 67.6924 100.039 98.6347 91.8124 111.745L70.0706 110.139C63.8409 96.1395 52.8974 62.9594 58.9608 42.2364Z" fill="url(#paint0_linear_198_2)" stroke="#1E1153" stroke-width="2"/>
<path d="M97.556 48.6199C112.685 32.4654 127.756 35.4219 133.401 38.9194C139.006 42.3922 149.949 54.8966 141.815 75.7211C133.682 96.5457 104.614 117.341 91.3653 125.673L73.9325 114.872C75.5035 99.5188 82.4275 64.7745 97.556 48.6199Z" fill="url(#paint1_linear_198_2)" stroke="#1E1153" stroke-width="2"/>
<path d="M35.9432 82.0988C25.6023 62.5814 33.4012 49.4208 38.5933 45.2802C43.7487 41.1689 59.253 35.0299 76.3471 49.5271C93.4412 64.0243 111.602 92.0522 115.133 107.226L91.0724 126.108C77.0047 119.57 46.2841 101.616 35.9432 82.0988Z" fill="url(#paint2_linear_198_2)" stroke="#1E1153" stroke-width="2"/>
<path d="M225.749 43.8V55.512H205.205V111H193.493V55.512L172.949 55.512V43.8L225.749 43.8ZM227.606 93.24V63L239.318 63V90.168C239.318 92.056 239.782 93.784 240.71 95.352C241.638 96.888 242.87 98.12 244.406 99.048C245.974 99.944 247.686 100.392 249.542 100.392C251.462 100.392 253.19 99.944 254.726 99.048C256.262 98.12 257.494 96.888 258.422 95.352C259.35 93.784 259.814 92.056 259.814 90.168V63H271.526L271.574 111H259.862L259.814 106.632C258.15 108.36 256.182 109.736 253.91 110.76C251.638 111.752 249.206 112.248 246.614 112.248C243.126 112.248 239.942 111.4 237.062 109.704C234.182 107.976 231.878 105.688 230.15 102.84C228.454 99.96 227.606 96.76 227.606 93.24ZM281.463 111V39L293.175 39V111H281.463ZM304.713 63H316.425V111H304.713V63ZM310.665 56.808C308.937 56.808 307.481 56.248 306.297 55.128C305.113 53.976 304.521 52.536 304.521 50.808C304.521 49.112 305.113 47.688 306.297 46.536C307.481 45.384 308.921 44.808 310.617 44.808C312.313 44.808 313.737 45.384 314.889 46.536C316.073 47.688 316.665 49.112 316.665 50.808C316.665 52.536 316.089 53.976 314.937 55.128C313.785 56.248 312.361 56.808 310.665 56.808ZM338.925 135H327.213V63H338.925V69.096C340.493 66.92 342.413 65.16 344.685 63.816C346.989 62.44 349.677 61.752 352.749 61.752C356.269 61.752 359.549 62.408 362.589 63.72C365.629 65.032 368.301 66.856 370.605 69.192C372.941 71.496 374.749 74.168 376.029 77.208C377.341 80.248 377.997 83.512 377.997 87C377.997 90.488 377.341 93.768 376.029 96.84C374.749 99.912 372.941 102.616 370.605 104.952C368.301 107.256 365.629 109.064 362.589 110.376C359.549 111.688 356.269 112.344 352.749 112.344C349.677 112.344 346.989 111.672 344.685 110.328C342.413 108.952 340.493 107.176 338.925 105V135ZM352.605 73.032C350.173 73.032 347.997 73.672 346.077 74.952C344.157 76.2 342.653 77.88 341.565 79.992C340.477 82.104 339.933 84.44 339.933 87C339.933 89.56 340.477 91.912 341.565 94.056C342.653 96.168 344.157 97.864 346.077 99.144C347.997 100.392 350.173 101.016 352.605 101.016C355.069 101.016 357.325 100.392 359.373 99.144C361.421 97.896 363.053 96.216 364.269 94.104C365.485 91.96 366.093 89.592 366.093 87C366.093 84.44 365.485 82.104 364.269 79.992C363.053 77.88 361.421 76.2 359.373 74.952C357.357 73.672 355.101 73.032 352.605 73.032Z" fill="#1E1153"/>
<defs>
<linearGradient id="paint0_linear_198_2" x1="82.0898" y1="20.665" x2="84.6732" y2="68.9111" gradientUnits="userSpaceOnUse">
<stop stop-color="#FF6CD6"/>
<stop offset="1" stop-color="#FBF0C4"/>
</linearGradient>
<linearGradient id="paint1_linear_198_2" x1="139.971" y1="46.7007" x2="103.923" y2="112.856" gradientUnits="userSpaceOnUse">
<stop stop-color="#666CFF"/>
<stop offset="1" stop-color="#FBF0C4"/>
</linearGradient>
<linearGradient id="paint2_linear_198_2" x1="39.1599" y1="44.8284" x2="98.9613" y2="119.816" gradientUnits="userSpaceOnUse">
<stop stop-color="#0C7FE9"/>
<stop offset="1" stop-color="#FBEFC3"/>
</linearGradient>
</defs>
</svg>
