<svg width="404" height="154" viewBox="0 0 404 154" fill="none" xmlns="http://www.w3.org/2000/svg">
<path d="M58.9608 42.2364C65.0242 21.5133 80.6202 17.3724 87.6602 17.8923C94.6505 18.4086 111.17 24.3756 113.999 46.034C116.828 67.6924 100.039 98.6347 91.8124 111.745L70.0706 110.139C63.8409 96.1395 52.8974 62.9594 58.9608 42.2364Z" fill="url(#paint0_linear_198_2)" stroke="#1E1153" stroke-width="2"/>
<path d="M97.556 48.6199C112.685 32.4654 127.756 35.4219 133.401 38.9194C139.006 42.3922 149.949 54.8966 141.815 75.7211C133.682 96.5457 104.614 117.341 91.3653 125.673L73.9325 114.872C75.5035 99.5188 82.4275 64.7745 97.556 48.6199Z" fill="url(#paint1_linear_198_2)" stroke="#1E1153" stroke-width="2"/>
<path d="M35.9432 82.0988C25.6023 62.5814 33.4012 49.4208 38.5933 45.2802C43.7487 41.1689 59.253 35.0299 76.3471 49.5271C93.4412 64.0243 111.602 92.0522 115.133 107.226L91.0724 126.108C77.0047 119.57 46.2841 101.616 35.9432 82.0988Z" fill="url(#paint2_linear_198_2)" stroke="#1E1153" stroke-width="2"/>
<path d="M231.64 43.8V55.512H211.096V111H199.384V55.512L178.84 55.512V43.8L231.64 43.8ZM233.496 93.24V63L245.208 63V90.168C245.208 92.056 245.672 93.784 246.6 95.352C247.528 96.888 248.76 98.12 250.296 99.048C251.864 99.944 253.576 100.392 255.432 100.392C257.352 100.392 259.08 99.944 260.616 99.048C262.152 98.12 263.384 96.888 264.312 95.352C265.24 93.784 265.704 92.056 265.704 90.168V63H277.416L277.464 111H265.752L265.704 106.632C264.04 108.36 262.072 109.736 259.8 110.76C257.528 111.752 255.096 112.248 252.504 112.248C249.016 112.248 245.832 111.4 242.952 109.704C240.072 107.976 237.768 105.688 236.04 102.84C234.344 99.96 233.496 96.76 233.496 93.24ZM287.354 111V39L299.066 39V111H287.354ZM310.604 63H322.316V111H310.604V63ZM316.556 56.808C314.828 56.808 313.372 56.248 312.188 55.128C311.004 53.976 310.412 52.536 310.412 50.808C310.412 49.112 311.004 47.688 312.188 46.536C313.372 45.384 314.812 44.808 316.508 44.808C318.204 44.808 319.628 45.384 320.78 46.536C321.964 47.688 322.556 49.112 322.556 50.808C322.556 52.536 321.98 53.976 320.828 55.128C319.676 56.248 318.252 56.808 316.556 56.808ZM344.816 135H333.104V63H344.816V69.096C346.384 66.92 348.304 65.16 350.576 63.816C352.88 62.44 355.568 61.752 358.64 61.752C362.16 61.752 365.44 62.408 368.48 63.72C371.52 65.032 374.192 66.856 376.496 69.192C378.832 71.496 380.64 74.168 381.92 77.208C383.232 80.248 383.888 83.512 383.888 87C383.888 90.488 383.232 93.768 381.92 96.84C380.64 99.912 378.832 102.616 376.496 104.952C374.192 107.256 371.52 109.064 368.48 110.376C365.44 111.688 362.16 112.344 358.64 112.344C355.568 112.344 352.88 111.672 350.576 110.328C348.304 108.952 346.384 107.176 344.816 105V135ZM358.496 73.032C356.064 73.032 353.888 73.672 351.968 74.952C350.048 76.2 348.544 77.88 347.456 79.992C346.368 82.104 345.824 84.44 345.824 87C345.824 89.56 346.368 91.912 347.456 94.056C348.544 96.168 350.048 97.864 351.968 99.144C353.888 100.392 356.064 101.016 358.496 101.016C360.96 101.016 363.216 100.392 365.264 99.144C367.312 97.896 368.944 96.216 370.16 94.104C371.376 91.96 371.984 89.592 371.984 87C371.984 84.44 371.376 82.104 370.16 79.992C368.944 77.88 367.312 76.2 365.264 74.952C363.248 73.672 360.992 73.032 358.496 73.032Z" fill="#1E1153"/>
<defs>
<linearGradient id="paint0_linear_198_2" x1="82.0898" y1="20.665" x2="84.6732" y2="68.9111" gradientUnits="userSpaceOnUse">
<stop stop-color="#FF6CD6"/>
<stop offset="1" stop-color="#FBF0C4"/>
</linearGradient>
<linearGradient id="paint1_linear_198_2" x1="139.971" y1="46.7007" x2="103.923" y2="112.856" gradientUnits="userSpaceOnUse">
<stop stop-color="#666CFF"/>
<stop offset="1" stop-color="#FBF0C4"/>
</linearGradient>
<linearGradient id="paint2_linear_198_2" x1="39.1599" y1="44.8284" x2="98.9613" y2="119.816" gradientUnits="userSpaceOnUse">
<stop stop-color="#0C7FE9"/>
<stop offset="1" stop-color="#FBEFC3"/>
</linearGradient>
</defs>
</svg>
